HIERARCHY
ROOT Hips
{
	OFFSET 0.0000 0.0000 0.0000
	CHANNELS 6 Xposition Yposition Zposition Zrotation Xrotation Yrotation
	JOINT Ab
	{
		OFFSET -0.0000 8.0846 -0.0000
		CHANNELS 3 Zrotation Xrotation Yrotation
		JOINT Chest
		{
			OFFSET -0.0000 25.0068 -0.0000
			CHANNELS 3 Zrotation Xrotation Yrotation
			JOINT Neck
			{
				OFFSET -0.0000 25.0068 0.0000
				CHANNELS 3 Zrotation Xrotation Yrotation
				JOINT Head
				{
					OFFSET -0.0000 10.7556 0.0000
					CHANNELS 3 Zrotation Xrotation Yrotation
					End Site
					{
						OFFSET -0.0000 16.6222 0.0000
					}
				}
			}
			JOINT LeftCollar
			{
				OFFSET -0.0000 25.0068 0.0000
				CHANNELS 3 Zrotation Xrotation Yrotation
				JOINT LeftShoulder
				{
					OFFSET 19.5556 -0.0000 0.0000
					CHANNELS 3 Zrotation Xrotation Yrotation
					JOINT LeftElbow
					{
						OFFSET 27.1828 0.0000 0.0000
						CHANNELS 3 Zrotation Xrotation Yrotation
						JOINT LeftWrist
						{
							OFFSET 23.3157 0.0000 0.0000
							CHANNELS 3 Zrotation Xrotation Yrotation
							End Site
							{
								OFFSET 0.0000 -14.6667 0.0000
							}
						}
					}
				}
			}
			JOINT RightCollar
			{
				OFFSET -0.0000 25.0068 0.0000
				CHANNELS 3 Zrotation Xrotation Yrotation
				JOINT RightShoulder
				{
					OFFSET -19.5556 0.0000 0.0000
					CHANNELS 3 Zrotation Xrotation Yrotation
					JOINT RightElbow
					{
						OFFSET -27.1828 0.0000 0.0000
						CHANNELS 3 Zrotation Xrotation Yrotation
						JOINT RightWrist
						{
							OFFSET -23.3157 0.0000 0.0000
							CHANNELS 3 Zrotation Xrotation Yrotation
							End Site
							{
								OFFSET -0.0000 -14.6667 0.0000
							}
						}
					}
				}
			}
		}
	}
	JOINT LeftHip
	{
		OFFSET 11.7333 0.0000 0.0000
		CHANNELS 3 Zrotation Xrotation Yrotation
		JOINT LeftKnee
		{
			OFFSET -0.0000 -40.8688 0.0000
			CHANNELS 3 Zrotation Xrotation Yrotation
			JOINT LeftAnkle
			{
				OFFSET -0.0000 -44.4337 0.0000
				CHANNELS 3 Zrotation Xrotation Yrotation
				End Site
				{
					OFFSET -0.0000 -4.8889 16.6222
				}
			}
		}
	}
	JOINT RightHip
	{
		OFFSET -11.7333 0.0000 0.0000
		CHANNELS 3 Zrotation Xrotation Yrotation
		JOINT RightKnee
		{
			OFFSET -0.0000 -40.8688 0.0000
			CHANNELS 3 Zrotation Xrotation Yrotation
			JOINT RightAnkle
			{
				OFFSET -0.0000 -44.4337 0.0000
				CHANNELS 3 Zrotation Xrotation Yrotation
				End Site
				{
					OFFSET -0.0000 -4.8889 16.6222
				}
			}
		}
	}
}
MOTION
Frames: 17
Frame Time: 0.010000
-5.2227 88.7120 191.1288 2.4996 0.1880 177.9691 1.3125 359.2906 358.0654 359.9238 10.9119 358.0650 0.2343 343.9496 0.7638 3.3445 10.9495 0.4127 338.3711 358.6337 7.2345 301.6964 31.2523 355.0093 14.6079 354.8228 321.1473 82.9836 2.5744 341.1152 21.9386 359.1525 355.6435 62.1545 42.8637 5.4630 337.8306 354.2655 28.2313 275.5674 352.8568 19.1060 2.6191 357.5440 358.1822 359.5822 11.3787 355.8041 358.6054 351.6523 22.0616 2.0721 351.5728 359.9678 359.1089 19.5063 8.6895 355.0211 345.2129 336.3251 
-5.2255 88.7132 191.1178 2.5047 0.1956 177.9612 1.3033 359.3166 358.0803 359.9163 10.8906 358.0793 0.1741 343.9314 0.7583 3.3909 11.0028 0.4033 338.3704 358.6136 7.2830 301.7032 31.3134 355.0039 14.7257 354.7724 321.2092 82.8636 2.5172 341.1202 21.9352 359.1726 355.6948 62.1928 42.9161 5.4214 337.7371 354.2791 28.2486 275.5480 352.9375 19.0679 2.6214 357.6797 358.3867 359.6635 11.1365 355.5148 358.5224 351.7379 22.0826 2.0759 351.5943 359.9888 359.1245 19.4923 8.5810 355.0874 345.1991 336.4048 
-5.2327 88.7136 191.1097 2.4983 0.1981 177.9723 1.2996 359.3416 358.0817 359.8921 10.8712 358.0851 0.1435 343.8961 0.7306 3.4130 11.0567 0.3775 338.3923 358.6364 7.2197 301.6514 31.0296 355.0814 14.5668 354.8742 321.2498 82.9588 2.4204 340.9134 21.9508 359.1318 355.6768 62.1687 43.0081 5.4309 337.6391 354.2716 28.2488 275.5316 352.9170 18.9681 2.6101 357.5741 358.1925 359.5819 11.3619 355.8129 358.5779 351.6382 22.0469 2.0565 351.6039 0.0023 359.1419 19.4916 8.5391 355.0812 345.2076 336.4211 
-5.2371 88.7146 191.1050 2.4999 0.1834 177.9849 1.2914 359.3505 358.0826 359.8836 10.8501 358.0875 0.0785 343.8644 0.7114 3.4613 11.1196 0.3584 338.3941 358.6167 7.2751 301.6500 31.2192 355.0596 14.7583 354.7652 321.3174 82.8515 2.4086 341.0130 21.9669 359.1649 355.6979 62.1234 42.9733 5.4450 337.7427 354.3270 28.2382 275.5388 352.9056 18.9796 2.6253 357.5623 358.1300 359.5780 11.3445 355.6837 358.5853 351.6384 22.1590 2.0562 351.5886 0.0025 359.1312 19.4987 8.5853 355.0828 345.1756 336.3924 
-5.2458 88.7164 191.0897 2.4863 0.1918 177.9893 1.2604 359.3515 358.0948 359.8866 10.8731 358.0991 0.0513 343.8057 0.6959 3.4564 11.2099 0.3498 338.4006 358.5975 7.2910 301.6490 31.2384 355.0694 14.8154 354.7703 321.3672 82.8234 2.3867 341.0511 21.9627 359.1851 355.7272 62.1094 42.9729 5.4666 337.6794 354.3249 28.2614 275.6200 352.8941 18.9590 2.5992 357.5813 358.1595 359.5566 11.3561 355.7827 358.6169 351.6372 22.0947 2.0192 351.6208 0.0294 359.1687 19.4739 8.5861 355.0368 345.1759 336.3616 
-5.2578 88.7164 191.0880 2.4920 0.1584 178.0281 1.2622 359.3320 358.0917 359.8855 10.8782 358.0964 359.9053 343.7088 0.6159 3.5891 11.3554 0.2643 338.3943 358.6366 7.2775 301.6773 31.1974 355.0560 14.6100 354.8897 321.4870 83.5701 2.2161 341.2686 21.9548 359.1658 355.7079 62.0752 42.9922 5.5111 337.6837 354.2954 28.2925 275.4287 352.9110 19.0074 2.5989 357.5303 358.1231 359.5965 11.3611 355.6419 358.5867 351.6376 22.1441 2.0038 351.5976 359.9878 359.1928 19.4636 8.4499 354.9670 345.1917 336.4737 
-5.2699 88.7165 191.0795 2.4892 0.1695 178.0498 1.2431 359.3533 358.1018 359.8913 10.8917 358.1063 359.8174 343.6394 0.5536 3.6447 11.4463 0.2114 338.3968 358.6024 7.3260 301.6954 31.3759 354.9977 14.9275 354.7183 321.5640 82.7813 2.2298 341.1022 21.9376 359.1671 355.7284 62.0804 43.0122 5.5135 337.6563 354.3125 28.2959 275.6227 352.9399 18.9724 2.5997 357.5353 358.0724 359.5581 11.3769 355.6677 358.5593 351.6187 22.1623 1.9751 351.6323 0.0049 359.2194 19.4394 8.4738 355.0441 345.1797 336.4481 
-5.2892 88.7181 191.0596 2.4729 0.2005 178.0761 1.2275 359.3791 358.1076 359.8783 10.9108 358.1115 359.7844 343.5824 0.5311 3.6671 11.5213 0.1924 338.3925 358.6018 7.3387 301.7234 31.5082 354.9966 14.8863 354.8072 321.6876 83.4798 2.0305 341.5204 21.9365 359.1672 355.7229 62.0261 43.0579 5.5512 337.6603 354.3147 28.3101 275.6116 352.9051 18.9587 2.5710 357.5743 358.1869 359.5842 11.3768 355.4973 358.6306 351.6354 22.2005 1.9167 351.6991 0.0297 359.2714 19.4003 8.4690 355.0152 345.1606 336.4309 
-5.3038 88.7218 191.0488 2.4668 0.2005 178.1148 1.2289 359.4010 358.0894 359.8531 10.8736 358.0981 359.7192 343.5811 0.5056 3.7271 11.5966 0.1616 338.3863 358.6011 7.3509 301.7500 31.5935 355.0230 14.9224 354.7789 321.7575 83.5569 1.9603 341.5759 21.9435 359.1865 355.7312 61.9861 43.0915 5.5866 337.6911 354.2994 28.2877 275.7080 352.8850 18.9930 2.5616 357.5559 358.1837 359.5713 11.4094 355.4938 358.6088 351.6218 22.1622 1.8763 351.7323 0.0321 359.3136 19.3612 8.3727 354.9153 345.1795 336.4616 
-5.3345 88.7213 191.0409 2.4337 0.1901 178.1503 1.2273 359.4003 358.0823 359.8059 10.8762 358.0941 359.6778 343.5446 0.4931 3.7555 11.6526 0.1498 338.3837 358.5808 7.3981 301.7750 31.7090 355.0016 15.0338 354.7351 321.7933 83.4848 1.9208 341.6859 21.9412 359.1867 355.7535 61.9380 43.1412 5.6339 337.6615 354.3153 28.3036 275.7222 352.8399 19.0135 2.5109 357.5285 358.1554 359.5644 11.4336 355.5001 358.6454 351.6277 22.1414 1.7748 351.7615 0.1162 359.4293 19.3026 8.2329 355.0224 345.1404 336.5156 
-5.3617 88.7261 191.0295 2.4099 0.1965 178.1924 1.2068 359.4113 358.0792 359.7941 10.8792 358.0935 359.5837 343.4974 0.4464 3.8296 11.7596 0.1081 338.3694 358.5590 7.4529 301.8192 31.9541 354.9531 15.2180 354.6782 321.9622 83.3166 1.8173 341.8370 21.9188 359.1603 355.7865 61.9316 43.1901 5.6252 337.6474 354.2853 28.3227 275.7524 352.8454 19.0152 2.4820 357.5147 358.1325 359.5383 11.4741 355.4620 358.6585 351.6099 22.1786 1.6991 351.8029 0.1518 359.4898 19.2674 8.1807 354.9168 345.1310 336.5124 
-5.3895 88.7305 191.0009 2.3948 0.2327 178.2338 1.1983 359.4233 358.0893 359.7715 10.9137 358.1050 359.4841 343.4590 0.3922 3.9408 11.8466 0.0515 338.3496 358.6010 7.5144 301.9246 32.2590 354.8413 15.5084 354.5676 322.1011 82.5535 1.8854 341.8241 21.9061 359.1893 355.7746 61.8536 43.2026 5.7214 337.7627 354.3246 28.3049 275.7258 352.8272 19.1192 2.4615 357.6755 358.2906 359.5568 11.2553 355.2765 358.6497 351.7040 22.1531 1.6343 351.9087 0.2690 359.5739 19.1847 8.0099 354.9205 345.1225 336.5740 
-5.4292 88.7327 190.9836 2.3657 0.2307 178.3127 1.1911 359.4173 358.0729 359.7446 10.9136 358.0920 359.3263 343.3972 0.2856 4.0712 11.9982 359.9443 338.3407 358.5552 7.5422 301.9639 32.6129 354.8102 15.8187 354.4577 322.1989 82.4618 1.8180 342.1216 21.8923 359.1559 355.7587 61.8326 43.2846 5.7404 337.6858 354.2834 28.3453 275.8078 352.8668 19.1474 2.4166 357.6545 358.2234 359.5350 11.2760 355.3073 358.7030 351.7058 22.1110 1.5362 351.9783 0.3616 359.6579 19.1066 7.9845 354.9253 345.0833 336.4979 
-5.4658 88.7388 190.9736 2.3412 0.2137 178.3779 1.1781 359.4223 358.0665 359.7307 10.8799 358.0853 359.2714 343.4150 0.2571 4.1568 12.0086 359.9214 338.3066 358.5906 7.5461 301.9989 32.6159 354.8174 15.7971 354.5357 322.2930 82.4296 1.7440 342.1281 21.8933 359.1902 355.7593 61.7339 43.3157 5.8056 337.7975 354.3115 28.3423 275.8575 352.9015 19.1763 2.3867 357.6131 358.1685 359.4974 11.3043 355.3252 358.7514 351.7317 22.1112 1.4669 352.0038 0.4630 359.7206 19.0516 7.8447 354.8644 345.0662 336.4989 
-5.5065 88.7444 190.9556 2.3207 0.1979 178.4248 1.1500 359.4176 358.0893 359.7404 10.8609 358.1089 359.1326 343.3564 0.1747 4.2716 12.1641 359.8330 338.2946 358.5491 7.5321 301.9680 32.6320 354.8645 15.8990 354.5072 322.2451 82.4269 1.7827 342.1679 21.8766 359.1915 355.7572 61.6758 43.3584 5.8495 337.4475 354.1985 28.2774 276.5272 352.6379 17.9313 2.3493 357.5850 358.1625 359.4797 11.3306 355.3952 358.7556 351.7255 21.9881 1.4016 352.0478 0.5707 359.7823 18.9787 7.7500 354.9021 345.0485 336.4784 
-5.5563 88.7474 190.9349 2.2877 0.1832 178.5052 1.1432 359.3971 358.0805 359.7015 10.8694 358.1033 358.9907 343.3014 0.0598 4.4379 12.2817 359.7083 338.2972 358.5776 7.5134 301.9902 32.6695 354.8566 15.8477 354.5900 322.3368 82.4936 1.7013 342.1645 21.8801 359.1714 355.7200 61.6244 43.4240 5.9006 337.4307 354.2213 28.2874 276.3052 352.5808 18.0044 2.2939 357.4570 357.9766 359.4312 11.5391 355.4846 359.0210 351.6759 22.0450 1.3175 352.0821 0.6281 359.8342 18.9376 7.6996 354.5645 345.1995 336.7041 
-5.6112 88.7522 190.9175 2.2490 0.1597 178.5732 1.1161 359.3831 358.0693 359.6927 10.8304 358.0932 359.0029 343.3329 0.0407 4.4247 12.3337 359.7107 338.3037 358.5503 7.4349 301.8692 32.3464 354.9906 15.7319 354.6232 322.2457 82.5349 1.7075 341.9212 21.8825 359.1368 355.7072 61.4949 43.4870 5.9755 337.8577 354.3794 28.3950 275.7090 352.8660 19.5756 2.2260 357.5299 358.1236 359.4584 11.3449 355.3525 359.0437 351.7621 21.9851 1.2281 352.1056 0.7077 359.8843 18.9039 7.6320 354.5678 345.1626 336.6708 
